<svg xmlns="http://www.w3.org/2000/svg" width="539" height="539" viewBox="0 0 539 539" version="1.1"><path d="M 262.887 1.295 C 261.449 1.958, 215.182 28.571, 160.072 60.436 L 59.870 118.371 63.685 120.674 C 65.783 121.941, 70.834 124.670, 74.908 126.739 C 81.795 130.236, 82.920 130.497, 90.908 130.464 C 97.393 130.437, 100.610 129.924, 104.026 128.369 C 106.516 127.237, 142.888 106.403, 184.853 82.072 C 226.818 57.741, 262.740 37.171, 264.680 36.360 C 266.873 35.444, 269.397 35.140, 271.354 35.558 C 273.084 35.927, 309.890 56.656, 353.145 81.622 C 396.400 106.588, 433.750 127.739, 436.145 128.624 C 438.775 129.596, 443.646 130.239, 448.443 130.248 C 456.106 130.261, 456.753 130.072, 466.786 124.881 C 472.506 121.921, 477.248 119.050, 477.323 118.500 C 477.399 117.950, 431.582 91.063, 375.508 58.750 C 266.164 -4.259, 270.327 -2.135, 262.887 1.295 M 18.237 303.772 C 18.498 414.724, 18.515 415.564, 20.554 418.362 C 22.215 420.642, 127.527 482.297, 221.357 535.922 L 227.213 539.269 226.857 526.884 C 226.539 515.855, 226.204 513.898, 223.795 509 C 218.691 498.624, 216.406 497.104, 136.500 450.965 C 49.532 400.748, 52.945 402.790, 51 399.803 C 49.705 397.815, 49.432 385.449, 49 309.500 L 48.500 221.500 45.840 215.825 C 42.151 207.957, 36.173 201.852, 26.947 196.530 C 22.627 194.039, 18.841 192, 18.534 192 C 18.226 192, 18.093 242.297, 18.237 303.772 M 512.662 195.882 C 502.124 201.802, 497.555 206.127, 493.815 213.723 L 490.500 220.455 490 308.478 C 489.482 399.714, 489.548 398.384, 485.333 402.198 C 484.315 403.120, 447.935 424.402, 404.491 449.491 C 361.046 474.580, 324.070 496.490, 322.322 498.180 C 320.574 499.870, 317.656 504.009, 315.839 507.376 C 312.696 513.199, 312.515 514.110, 312.160 525.898 C 311.826 536.965, 311.959 538.230, 313.393 537.679 C 316.907 536.331, 513.658 422.574, 515.879 420.607 C 521.197 415.896, 521 420.465, 521 302.032 C 521 241.514, 520.663 192.009, 520.250 192.021 C 519.837 192.032, 516.423 193.770, 512.662 195.882" stroke="none" fill="#04ab9c" fill-rule="evenodd"/><path d="M 67.411 159.891 C 56.145 166.761, 55.581 181.372, 66.274 189.355 C 68.303 190.870, 71.339 191.509, 79.212 192.080 C 85.061 192.503, 91.551 193.618, 94.254 194.662 C 96.868 195.673, 135.889 217.875, 180.966 244 L 262.924 291.500 262.962 379.701 C 262.988 441.068, 262.660 469.514, 261.881 473.201 C 261.266 476.115, 258.791 482.256, 256.381 486.846 C 253.954 491.470, 252 496.569, 252 498.280 C 252 503.470, 255.723 509.754, 260.434 512.514 C 270.488 518.406, 282.956 513.306, 285.983 502.062 C 287.191 497.578, 287.057 497.060, 281.974 486.500 C 279.856 482.100, 277.646 475.830, 277.062 472.566 C 276.364 468.666, 276.012 436.458, 276.035 378.566 L 276.069 290.500 359.785 242.782 C 448.825 192.029, 448.884 192, 462.145 192 C 470.198 192, 473.429 190.910, 477.760 186.733 C 483.177 181.508, 484.330 174.380, 480.904 167.302 C 478.131 161.574, 472.173 158, 465.397 158 C 458.270 158, 454.151 160.568, 450.018 167.587 C 442.657 180.089, 441.972 180.542, 354.500 230.744 C 309.950 256.313, 272.335 277.701, 270.911 278.275 C 268.544 279.227, 261.345 275.269, 186.911 232.089 C 127.050 197.363, 104.227 183.623, 100.691 180.181 C 98.047 177.606, 93.997 172.392, 91.691 168.593 C 88.912 164.013, 86.326 161.066, 84.016 159.843 C 79.403 157.403, 71.454 157.426, 67.411 159.891" stroke="none" fill="#74747b" fill-rule="evenodd"/></svg>