<svg xmlns="http://www.w3.org/2000/svg" width="1658" height="539" viewBox="0 0 1658 539" version="1.1"><path d="M 244.887 1.295 C 243.449 1.958, 197.182 28.571, 142.072 60.436 L 41.870 118.371 45.685 120.674 C 47.783 121.941, 52.834 124.670, 56.908 126.739 C 63.795 130.236, 64.920 130.497, 72.908 130.464 C 79.393 130.437, 82.610 129.924, 86.026 128.369 C 88.516 127.237, 124.888 106.403, 166.853 82.072 C 208.818 57.741, 244.740 37.171, 246.680 36.360 C 248.873 35.444, 251.397 35.140, 253.354 35.558 C 255.084 35.927, 291.890 56.656, 335.145 81.622 C 378.400 106.588, 415.750 127.739, 418.145 128.624 C 420.775 129.596, 425.646 130.239, 430.443 130.248 C 438.106 130.261, 438.753 130.072, 448.786 124.881 C 454.506 121.921, 459.248 119.050, 459.323 118.500 C 459.399 117.950, 413.582 91.063, 357.508 58.750 C 248.164 -4.259, 252.327 -2.135, 244.887 1.295 M 0.237 303.772 C 0.498 414.724, 0.515 415.564, 2.554 418.362 C 4.215 420.642, 109.527 482.297, 203.357 535.922 L 209.213 539.269 208.857 526.884 C 208.539 515.855, 208.204 513.898, 205.795 509 C 200.691 498.624, 198.406 497.104, 118.500 450.965 C 31.532 400.748, 34.945 402.790, 33 399.803 C 31.705 397.815, 31.432 385.449, 31 309.500 L 30.500 221.500 27.840 215.825 C 24.151 207.957, 18.173 201.852, 8.947 196.530 C 4.627 194.039, 0.841 192, 0.534 192 C 0.226 192, 0.093 242.297, 0.237 303.772 M 494.662 195.882 C 484.124 201.802, 479.555 206.127, 475.815 213.723 L 472.500 220.455 472 308.478 C 471.482 399.714, 471.548 398.384, 467.333 402.198 C 466.315 403.120, 429.935 424.402, 386.491 449.491 C 343.046 474.580, 306.070 496.490, 304.322 498.180 C 302.574 499.870, 299.656 504.009, 297.839 507.376 C 294.696 513.199, 294.515 514.110, 294.160 525.898 C 293.826 536.965, 293.959 538.230, 295.393 537.679 C 298.907 536.331, 495.658 422.574, 497.879 420.607 C 503.197 415.896, 503 420.465, 503 302.032 C 503 241.514, 502.663 192.009, 502.250 192.021 C 501.837 192.032, 498.423 193.770, 494.662 195.882 M 620 260.502 L 620 322.062 632.250 321.781 L 644.500 321.500 645 278.810 L 645.500 236.119 662.500 260.135 C 671.850 273.343, 679.950 284.518, 680.500 284.969 C 681.108 285.467, 688.843 275.797, 700.250 260.279 L 719 234.770 719 278.415 L 719 322.060 731.750 321.780 L 744.500 321.500 744.758 260.250 L 745.015 199 732.080 199 L 719.146 199 700.871 224.516 C 690.821 238.550, 682.271 249.913, 681.873 249.766 C 681.475 249.620, 673.315 238.250, 663.740 224.500 L 646.332 199.500 633.166 199.221 L 620 198.942 620 260.502 M 784.118 259.250 C 771.390 292.387, 760.982 320.076, 760.988 320.781 C 760.997 321.766, 763.798 321.997, 773.145 321.781 L 785.289 321.500 790.285 306.750 L 795.281 292 818.940 292 L 842.598 292 843.753 295.250 C 844.389 297.038, 846.776 303.788, 849.058 310.250 L 853.208 322 866.221 322 C 879.221 322, 879.233 321.998, 878.652 319.750 C 878.332 318.512, 868.272 290.837, 856.296 258.250 L 834.522 199 820.891 199 L 807.259 199 784.118 259.250 M 895 260.500 L 895 322 908 322 L 921 322 921.011 302.250 L 921.022 282.500 925.761 277.261 L 930.500 272.022 948.813 297.011 L 967.125 322 983.063 322 C 991.828 322, 998.989 321.663, 998.975 321.250 C 998.962 320.837, 987.483 305.233, 973.468 286.572 C 948.320 253.090, 948.009 252.617, 949.812 250.572 C 950.817 249.433, 961.396 237.623, 973.320 224.328 C 985.244 211.033, 995 199.896, 995 199.578 C 995 199.260, 987.912 199, 979.248 199 L 963.497 199 942.498 225.884 L 921.500 252.769 921.234 225.884 L 920.968 199 907.984 199 L 895 199 895 260.500 M 1016 260.500 L 1016 322 1057 322 L 1098 322 1098 311.500 L 1098 301 1069.500 301 L 1041 301 1041 286 L 1041 271 1066 271 L 1091 271 1091 260.500 L 1091 250 1066.500 250 L 1042 250 1042 235 L 1042 220 1070 220 L 1098 220 1098 209.500 L 1098 199 1057 199 L 1016 199 1016 260.500 M 1123.490 200.171 C 1123.210 200.902, 1123.098 228.500, 1123.241 261.500 L 1123.500 321.500 1136.250 321.780 L 1149 322.060 1149 300.030 L 1149 278 1159.862 278 L 1170.723 278 1183.910 300 L 1197.096 322 1212.548 322 C 1221.640 322, 1228 321.609, 1228 321.050 C 1228 320.528, 1221.250 309.749, 1213 297.099 C 1204.750 284.448, 1198 273.674, 1198 273.157 C 1198 272.640, 1199.194 271.917, 1200.654 271.551 C 1204.757 270.521, 1211.805 265.252, 1215.024 260.808 C 1220.181 253.690, 1222.317 246.564, 1222.313 236.500 C 1222.305 218.431, 1215.588 208.252, 1199.500 201.933 C 1193.682 199.647, 1192.446 199.565, 1158.749 199.209 C 1130.509 198.910, 1123.903 199.091, 1123.490 200.171 M 1149 239.101 L 1149 258.202 1165.750 257.825 C 1184.428 257.405, 1188.156 256.393, 1192.270 250.627 C 1194.188 247.938, 1194.500 246.215, 1194.500 238.323 C 1194.500 230.617, 1194.168 228.694, 1192.429 226.323 C 1188.340 220.749, 1185.252 220.003, 1166.250 220.002 L 1149 220 1149 239.101 M 810.418 248.553 L 802.335 272 818.668 272 C 827.650 272, 835.006 271.663, 835.012 271.250 C 835.031 270.121, 819.798 226.607, 819.103 225.803 C 818.771 225.420, 814.863 235.658, 810.418 248.553" stroke="none" fill="#04ab9c" fill-rule="evenodd"/><path d="M 49.411 159.891 C 38.145 166.761, 37.581 181.372, 48.274 189.355 C 50.303 190.870, 53.339 191.509, 61.212 192.080 C 67.061 192.503, 73.551 193.618, 76.254 194.662 C 78.868 195.673, 117.889 217.875, 162.966 244 L 244.924 291.500 244.962 379.701 C 244.988 441.068, 244.660 469.514, 243.881 473.201 C 243.266 476.115, 240.791 482.256, 238.381 486.846 C 235.954 491.470, 234 496.569, 234 498.280 C 234 503.470, 237.723 509.754, 242.434 512.514 C 252.488 518.406, 264.956 513.306, 267.983 502.062 C 269.191 497.578, 269.057 497.060, 263.974 486.500 C 261.856 482.100, 259.646 475.830, 259.062 472.566 C 258.364 468.666, 258.012 436.458, 258.035 378.566 L 258.069 290.500 341.785 242.782 C 430.825 192.029, 430.884 192, 444.145 192 C 452.198 192, 455.429 190.910, 459.760 186.733 C 465.177 181.508, 466.330 174.380, 462.904 167.302 C 460.131 161.574, 454.173 158, 447.397 158 C 440.270 158, 436.151 160.568, 432.018 167.587 C 424.657 180.089, 423.972 180.542, 336.500 230.744 C 291.950 256.313, 254.335 277.701, 252.911 278.275 C 250.544 279.227, 243.345 275.269, 168.911 232.089 C 109.050 197.363, 86.227 183.623, 82.691 180.181 C 80.047 177.606, 75.997 172.392, 73.691 168.593 C 70.912 164.013, 68.326 161.066, 66.016 159.843 C 61.403 157.403, 53.454 157.426, 49.411 159.891 M 1610 196.579 C 1608.625 196.824, 1604.800 197.503, 1601.500 198.089 C 1586.829 200.694, 1573.865 210.350, 1567.483 223.424 C 1562.527 233.579, 1560.922 240.759, 1560.310 255.500 C 1558.754 293.010, 1572.544 315.189, 1601.359 321.522 C 1607.565 322.886, 1612.088 323.136, 1622.859 322.708 C 1636.631 322.162, 1644.104 320.706, 1653.250 316.788 L 1658 314.754 1658 303.282 L 1658 291.810 1653.640 294.365 C 1642.651 300.805, 1626.568 303.970, 1614.646 302.039 C 1597.094 299.195, 1588.768 289.120, 1587.136 268.750 C 1585.011 242.219, 1591.375 225.576, 1605.843 219.826 C 1610.584 217.942, 1613.363 217.584, 1623 217.616 C 1633.080 217.649, 1635.426 217.999, 1642 220.449 C 1646.125 221.986, 1651.412 224.357, 1653.750 225.717 L 1658 228.190 1658 216.711 L 1658 205.232 1652.611 203.045 C 1643.313 199.271, 1632.862 197.025, 1622.500 196.572 C 1617 196.332, 1611.375 196.335, 1610 196.579 M 1250 260 L 1250 321 1291 321 L 1332 321 1332 311 L 1332 301 1303.500 301 L 1275 301 1275 285.500 L 1275 270 1300.035 270 L 1325.070 270 1324.785 259.750 L 1324.500 249.500 1300.250 249.232 L 1276 248.964 1276 233.982 L 1276 219 1304 219 L 1332 219 1332 209 L 1332 199 1291 199 L 1250 199 1250 260 M 1358 260 L 1358 321 1398.500 321 L 1439 321 1439 310.500 L 1439 300 1411.500 300 L 1384 300 1384 249.500 L 1384 199 1371 199 L 1358 199 1358 260 M 1458 260 L 1458 321 1499 321 L 1540 321 1540 311 L 1540 301 1511.500 301 L 1483 301 1483 285.500 L 1483 270 1508.035 270 L 1533.070 270 1532.785 259.750 L 1532.500 249.500 1508.250 249.232 L 1484 248.964 1484 233.982 L 1484 219 1512 219 L 1540 219 1540 209 L 1540 199 1499 199 L 1458 199 1458 260" stroke="none" fill="#74747b" fill-rule="evenodd"/></svg>